<!--?xml version="1.0" standalone="no"?-->
              <svg id="sw-js-blob-svg" viewBox="0 0 100 100" xmlns="http://www.w3.org/2000/svg" version="1.1">
                    <defs> 
                        <linearGradient id="sw-gradient" x1="0" x2="1" y1="1" y2="0">
                            <stop id="stop1" stop-color="rgba(254, 249, 195, 1)" offset="0%"></stop>
                            <stop id="stop2" stop-color="rgba(254, 249, 195, 1)" offset="100%"></stop>
                        </linearGradient>
                    </defs>
                <path fill="url(#sw-gradient)" d="M21,-37.7C25.6,-33.8,26.6,-24.8,27.5,-17.7C28.5,-10.6,29.4,-5.3,31.1,1C32.9,7.3,35.5,14.7,34.2,21.2C32.9,27.7,27.7,33.3,21.3,33.7C15,34.1,7.5,29.3,0,29.4C-7.6,29.5,-15.1,34.4,-18.9,32.5C-22.6,30.5,-22.5,21.7,-24.9,15.2C-27.3,8.6,-32.2,4.3,-31.1,0.7C-29.9,-3,-22.7,-6,-20.6,-13.1C-18.5,-20.2,-21.5,-31.4,-19,-36.5C-16.4,-41.6,-8.2,-40.5,0,-40.6C8.2,-40.6,16.4,-41.6,21,-37.7Z" width="100%" height="100%" transform="translate(50 50)" stroke-width="0" style="transition: 0.3s;"></path>
              </svg>